PathFileType	4	(X/Y/Z)	c:/Users/goper/Files/vsCode/490R/osim_files/A03/A03_SSWS_03.trc
DataRate	CameraRate	NumFrames	NumMarkers	Units                	OrigDataRate	OrigDataStartFrame	OrigNumFrames
250.00	250.00	7	36	mm	250.0	1040	2771
                Frame#	Time	LPSIS			LASIS			LTH1			LTH2			LTH3			LTH4			LLFE			LMFE			LSH1			LSH2			LSH3			LSH4			LLMAL			LMMAL			LCAL			LMTP5			LTOE			LMTP1			RPSIS			RASIS			RTH1			RTH2			RTH3			RTH4			RLFE			RMFE			RSH1			RSH2			RSH3			RSH4			RLMAL			RMMAL			RCAL			RMTP1			RTOE			RMTP5		
		X1	Y1	Z1	X2	Y2	Z2	X3	Y3	Z3	X4	Y4	Z4	X5	Y5	Z5	X6	Y6	Z6	X7	Y7	Z7	X8	Y8	Z8	X9	Y9	Z9	X10	Y10	Z10	X11	Y11	Z11	X12	Y12	Z12	X13	Y13	Z13	X14	Y14	Z14	X15	Y15	Z15	X16	Y16	Z16	X17	Y17	Z17	X18	Y18	Z18	X19	Y19	Z19	X20	Y20	Z20	X21	Y21	Z21	X22	Y22	Z22	X23	Y23	Z23	X24	Y24	Z24	X25	Y25	Z25	X26	Y26	Z26	X27	Y27	Z27	X28	Y28	Z28	X29	Y29	Z29	X30	Y30	Z30	X31	Y31	Z31	X32	Y32	Z32	X33	Y33	Z33	X34	Y34	Z34	X35	Y35	Z35	X36	Y36	Z36

1040	4.15600	667.04883	1037.51892	310.01083	462.71344	934.81805	468.97430	640.01434	614.16992	473.08273	648.61542	572.50281	469.69794	581.35309	598.46680	465.22958	597.59430	556.84906	460.23645	673.90869	526.54059	457.23294	642.26160	519.55286	305.56293	744.57336	459.75351	447.69003	759.33704	413.92575	442.39243	687.09052	433.04077	445.27884	711.80481	392.80493	435.51657	871.59088	110.29812	384.48611	855.80682	117.76889	283.87109	938.16669	107.18009	326.25638	732.62885	35.95835	396.05228	697.83325	64.14926	328.82031	726.53656	46.95898	281.35287	655.41241	1033.33313	230.73393	396.27335	953.22290	174.85927	366.44376	594.48254	135.31474	349.05814	557.33698	144.94933	308.72690	615.74323	145.41266	299.64383	574.15863	154.15898	323.74286	530.14478	167.35770	294.89978	550.24768	286.68933	353.78967	449.95544	165.15919	342.01361	410.39661	154.83728	292.06723	463.19406	160.86359	284.57468	415.04425	153.77365	217.38599	121.19373	204.59587	169.97183	129.50482	286.44733	243.64929	76.88116	268.02435	32.63082	107.53739	286.49258	21.77077	138.32172	231.88077	44.09976	85.64158	172.31821
1041	4.16000	661.79016	1036.69336	309.88974	458.12302	933.66522	469.21631	636.11511	613.49170	473.43350	644.13202	571.40942	470.05377	577.49841	597.63922	465.80441	593.58246	555.90228	460.77982	670.16925	525.83197	457.71646	638.54230	518.69226	305.98318	741.31812	459.53476	448.09229	756.43396	413.85028	442.76108	684.01196	432.46445	445.63892	709.05908	392.37109	435.91367	870.94659	111.08860	384.60300	855.13794	118.51579	283.91922	937.88208	108.80502	326.27359	732.53967	35.89566	396.03781	697.67456	64.00670	328.77615	726.34576	46.94958	281.27991	650.01746	1032.62305	230.72729	390.81601	952.42035	175.25987	360.24112	594.28320	135.08601	344.02469	556.66315	145.72557	302.90192	615.75336	146.15620	293.58856	573.98730	154.49208	317.69122	529.78979	167.42033	289.30032	549.73999	286.74411	348.99921	449.71283	164.25758	336.72067	409.85931	154.54549	286.97141	462.52914	161.10226	279.74966	414.52246	153.68811	214.59123	120.56285	205.26833	168.80594	126.58267	286.70459	242.19606	77.21014	268.41019	31.03853	103.63620	289.90897	19.21189	135.12215	235.85086	41.48904	83.28473	175.39236
1042	4.16400	656.51202	1035.87695	309.76102	453.47791	932.49805	469.50211	632.00470	612.69958	473.81390	640.18585	570.69641	470.53561	573.51239	596.77405	466.34067	589.66907	555.05530	461.38434	666.19775	525.01880	458.21674	634.68134	517.76593	306.37332	737.89081	459.32712	448.52261	753.35413	413.71655	443.15726	680.81848	431.84457	446.06363	706.15527	391.92822	436.24866	870.28613	111.91600	384.77075	854.39319	119.25621	283.92499	937.11780	110.10772	326.38907	732.67908	36.20191	396.08273	697.74988	63.83240	328.79785	726.14508	46.91611	281.17007	644.66510	1031.62170	230.56966	385.24060	953.90259	174.61078	354.22122	594.10272	134.87570	337.73840	556.96539	145.87497	296.84845	615.57037	146.63704	287.54730	573.84857	154.91035	311.78638	529.37775	167.51689	283.72485	549.25677	286.84644	343.41452	449.24805	163.89900	331.22003	409.36618	154.24806	280.76700	461.63391	161.39032	275.08865	414.33347	153.36786	210.81288	119.98177	205.60356	164.12225	124.00578	286.30154	240.74022	77.59354	268.72464	29.17417	99.41195	293.21173	16.36327	131.70795	239.83356	38.87660	80.87989	178.39931
1043	4.16800	651.25458	1035.06519	309.67743	448.73874	931.32166	469.72498	627.85968	611.91327	474.22079	636.10834	569.92816	471.02817	569.39728	595.88275	466.91415	585.81390	554.32440	462.07938	662.12744	524.21008	458.72440	630.71771	516.89008	306.74667	734.37189	459.08759	448.93433	750.15204	413.58575	443.53479	677.38483	431.19708	446.51263	703.16742	391.43185	436.60916	869.54999	112.78212	384.92935	853.54858	119.84241	284.16190	936.10114	111.21309	326.51959	732.32214	35.80890	396.02390	697.28497	63.58385	328.79535	726.66376	46.10030	283.09735	639.32935	1030.97522	230.53302	379.83215	953.18591	174.90788	348.93680	594.32739	134.41068	331.60217	556.85614	145.86302	290.69733	615.42010	147.06929	281.74380	573.68530	155.33607	305.94522	528.99585	167.56921	278.23364	548.72253	287.03860	337.60675	448.81760	163.62082	325.42026	408.97314	153.90370	274.99011	461.12964	161.63939	269.33340	413.83148	153.59198	206.88394	119.79151	205.65051	160.85484	122.07062	286.82794	239.28722	78.02545	268.97266	27.12223	95.30820	296.28915	13.21026	127.78892	243.48030	36.09757	78.01113	181.16042
1044	4.17200	645.98669	1034.22961	309.62909	444.01480	930.15588	469.92123	623.61182	611.14624	474.62094	632.53168	569.54150	471.68207	565.16956	594.99304	467.47464	581.47211	553.34595	462.68146	657.90094	523.34436	459.21375	626.64246	515.98236	307.10751	730.63947	458.84384	449.38214	746.83728	413.49594	443.93817	674.00964	430.43787	446.95435	700.03534	390.92822	436.96713	868.83545	113.73635	385.10660	852.72070	120.77617	284.26669	935.73383	112.93868	326.86487	732.54462	36.13584	396.08780	697.12469	63.38789	328.80469	726.24335	46.02848	282.97153	633.93225	1030.08398	230.40041	374.28250	952.43805	175.31364	345.30109	594.86859	133.08730	327.70444	554.79218	144.97630	284.96387	615.28577	147.52246	276.01791	573.51660	155.76024	300.31750	528.55951	167.63173	273.21848	548.08386	287.42987	331.62842	448.70239	163.15591	319.48471	408.87579	153.39534	268.93030	460.88742	161.86249	263.32178	413.61816	153.74670	203.07368	119.78949	205.44060	157.29997	120.46860	287.24832	237.84250	78.50001	269.15918	24.62157	91.13299	298.68604	9.88208	123.27707	246.50890	32.97665	74.63766	183.33025
1045	4.17600	640.78455	1033.44128	309.58115	439.23428	929.03436	470.11743	619.25031	610.37195	475.01465	627.61969	568.39130	472.05359	560.85602	594.09235	468.06924	577.21698	552.47241	463.33176	653.53119	522.42755	459.73166	622.31494	514.98505	307.61774	727.21179	458.80353	449.91315	743.41937	413.41333	444.36490	670.53931	429.64352	447.34238	696.84039	390.44916	437.35083	868.11743	114.80096	385.32755	851.94263	121.74190	284.40588	934.48755	114.38367	326.74207	732.48102	36.12733	396.08795	696.97845	63.25676	328.80182	726.09570	45.97771	282.95380	628.56323	1029.38306	230.34544	368.76871	951.89526	175.53391	341.23093	595.14392	132.22247	321.94373	554.75500	145.30888	279.73575	615.18652	147.80739	270.35818	573.40479	156.03407	294.65137	528.29376	167.61566	268.22726	547.56525	287.97620	325.46469	448.90247	162.62096	313.29495	409.13101	152.75508	262.70065	460.96335	162.10757	257.20178	413.73663	153.77216	198.98715	119.56592	205.25778	153.80602	119.11270	287.66531	236.41161	79.01131	269.28922	23.79940	85.87875	301.02856	6.41458	118.34344	248.73260	29.58711	71.05377	184.74875
1046	4.18000	635.57275	1032.66760	309.53564	434.41498	928.02734	470.25110	614.76544	609.67249	475.39746	623.16272	567.64050	472.54279	556.25415	593.24951	468.65485	572.94983	551.69232	464.03226	648.90247	521.53217	460.25388	617.73364	513.98358	308.14539	723.17657	458.57437	450.37955	739.75439	413.33804	444.78699	666.81982	428.94482	447.72830	693.44098	389.99359	437.79965	867.26239	115.93745	385.47061	851.01880	122.79675	284.49896	934.00256	116.28813	327.10919	732.41711	36.12556	396.07468	696.82318	63.15990	328.76892	726.01898	45.98061	282.91510	623.17517	1028.74585	230.27303	363.21017	951.33960	175.63797	335.09238	594.84381	132.80795	316.20215	554.71576	145.52200	274.20786	615.15063	147.92723	264.76480	573.36206	156.10612	288.68100	528.26532	167.44479	263.56183	547.05139	288.66464	319.00253	449.34354	162.03685	306.89581	409.64777	152.01703	256.18845	461.17728	162.41396	250.79758	413.99808	153.84908	195.46115	119.50504	205.03171	150.58444	118.12130	288.05728	235.00000	79.55347	269.36771	21.90277	81.29670	302.42737	3.02778	113.19213	250.25528	28.03686	65.42236	187.29791
